# xmcd
#
# Track frame offsets: 
#        150
#        23892
#        38335
#        56225
#        71275
#        90060
#        120640
#        137975
#        154837
#        175077
#        194327
#        217015
#
# Disc length: 3049 seconds
#
# Revision: 4
# Processed by: cddbd v1.5.2PL0 Copyright (c) Steve Scherf et al.
# Submitted via: ExactAudioCopy v1.3
#
DISCID=9d0be70c
DTITLE=??? - ??
DYEAR=2005
DGENRE=Country
TTITLE0=?????
TTITLE1=??????
TTITLE2=????????
TTITLE3=??
TTITLE4=??????
TTITLE5=?? ?? ????
TTITLE6=???
TTITLE7=???
TTITLE8=Standing on My Land
TTITLE9=???
TTITLE10=?????
TTITLE11=??
EXTD=
EXTT0=
EXTT1=
EXTT2=
EXTT3=
EXTT4=
EXTT5=
EXTT6=
EXTT7=
EXTT8=
EXTT9=
EXTT10=
EXTT11=
PLAYORDER=
